<?xml version="1.0" standalone="no"?>
<svg xmlns="http://www.w3.org/2000/svg" viewBox="0 0 1254 1254">
<g transform="translate(0,1254) scale(0.1,-0.1)" fill="#000000" stroke="none">
<path d="M2810 9917 c-143 -33 -233 -111 -309 -270 -159 -330 -188 -856 -85
-1580 20 -145 84 -485 122 -646 7 -31 -2 -55 -93 -235 -267 -530 -404 -1013
-437 -1533 -32 -518 57 -998 263 -1413 278 -560 730 -986 1380 -1299 533 -257
1138 -397 1999 -463 220 -17 1069 -17 1295 0 456 34 822 90 1180 179 1395 346
2231 1171 2411 2377 21 143 30 559 15 726 -41 450 -164 878 -381 1325 -48 99
-102 206 -122 238 l-34 59 28 121 c105 459 161 915 162 1322 0 328 -22 494
-96 725 -133 417 -455 487 -993 215 -384 -194 -910 -609 -1264 -998 -87 -95
-130 -136 -141 -131 -8 3 -83 25 -165 49 -234 67 -486 115 -775 147 -158 17
-796 17 -960 0 -344 -37 -638 -95 -895 -177 l-80 -26 -34 38 c-414 463 -863
835 -1286 1067 -282 155 -539 221 -705 183z m296 -202 c49 -14 157 -59 239
-100 405 -200 873 -576 1297 -1041 79 -88 128 -134 145 -137 15 -3 75 11 144
34 245 80 536 139 859 176 219 25 792 25 1002 0 308 -37 564 -91 815 -171 117
-37 147 -44 170 -36 16 6 70 56 123 116 321 359 777 743 1143 963 109 65 311
162 397 189 350 113 479 1 561 -483 65 -387 11 -1059 -138 -1706 l-35 -156 79
-150 c353 -661 511 -1303 473 -1915 -76 -1205 -810 -2038 -2135 -2423 -347
-101 -752 -170 -1235 -212 -292 -25 -1135 -25 -1430 0 -880 75 -1525 247
-2058 548 -785 444 -1229 1095 -1328 1945 -20 174 -14 563 11 724 66 421 200
834 405 1240 37 74 80 155 94 180 14 25 26 55 26 67 0 12 -16 91 -36 175 -148
639 -199 1312 -129 1707 42 243 124 419 216 467 78 40 182 40 325 -1z"/>
<path d="M4231 5694 c-179 -48 -311 -207 -363 -435 -20 -91 -15 -281 10 -372
49 -172 149 -309 266 -363 163 -75 345 -47 476 73 181 166 241 497 140 774
-66 181 -186 294 -348 328 -69 14 -114 13 -181 -5z"/>
<path d="M8121 5694 c-204 -55 -338 -240 -372 -514 -33 -275 86 -557 275 -650
229 -113 485 -18 600 223 52 108 69 191 69 337 0 149 -17 230 -73 345 -67 140
-182 235 -318 264 -68 14 -114 13 -181 -5z"/>
</g>
</svg>
